<!--?xml version="1.0" standalone="no"?-->
              <svg id="sw-js-blob-svg" viewBox="0 0 100 100" xmlns="http://www.w3.org/2000/svg" version="1.1">
                    <defs> 
                        <linearGradient id="sw-gradient" x1="0" x2="1" y1="1" y2="0">
                            <stop id="stop1" stop-color="rgba(124.227, 0, 50.76, 1)" offset="0%"></stop>
                            <stop id="stop2" stop-color="rgba(129.39, 0, 255, 1)" offset="100%"></stop>
                        </linearGradient>
                    </defs>
                <path fill="url(#sw-gradient)" d="M19.5,-34.3C25.9,-30.1,32,-26.1,35.9,-20.4C39.7,-14.7,41.2,-7.3,41.1,-0.1C40.9,7.1,39,14.3,35.8,21.1C32.5,27.9,28.1,34.3,21.9,38.4C15.7,42.5,7.9,44.2,0.4,43.6C-7.1,42.9,-14.3,40,-20.1,35.8C-25.9,31.5,-30.4,25.8,-33.1,19.6C-35.8,13.4,-36.7,6.7,-38.1,-0.8C-39.4,-8.3,-41.3,-16.6,-39,-23.4C-36.6,-30.2,-30,-35.4,-22.8,-39.1C-15.6,-42.8,-7.8,-45,-0.6,-43.9C6.6,-42.9,13.1,-38.5,19.5,-34.3Z" width="100%" height="100%" transform="translate(50 50)" stroke-width="0" style="transition: all 0.3s ease 0s;" stroke="url(#sw-gradient)"></path>
              </svg>